<?xml version="1.0" encoding="UTF-8"?>
<svg id="Camada_2" data-name="Camada 2" xmlns="http://www.w3.org/2000/svg" viewBox="0 0 654.32 155.13">
  <defs>
    <style>
      .cls-1 {
        fill: #6c2ef3;
      }

      .cls-2 {
        fill: #190f59;
      }
    </style>
  </defs>
  <g id="Camada_1-2" data-name="Camada 1">
    <g>
      <path class="cls-1" d="M14.01,46.71C18.97,19.65,42.55,0,70.06,0h61.01l-13.52,76.14c-4.83,27.2-28.48,47.02-56.11,47.02H0L14.01,46.71Z"/>
      <path class="cls-2" d="M47.93,78.68c4.96-27.06,28.54-46.71,56.05-46.71h61.01l-13.52,76.14c-4.83,27.2-28.48,47.02-56.11,47.02h-61.44l14.01-76.45Z"/>
      <path class="cls-2" d="M240.13,63.63h-24.32l-4.48,12.4h-7.68l20.16-55.44h8.4l20.08,55.44h-7.68l-4.48-12.4ZM238.05,57.71l-10.08-28.16-10.08,28.16h20.16Z"/>
      <path class="cls-2" d="M299.98,32.18v43.84h-7.28v-6.48c-1.39,2.24-3.32,3.99-5.8,5.24-2.48,1.25-5.21,1.88-8.2,1.88-3.41,0-6.48-.71-9.2-2.12-2.72-1.41-4.87-3.53-6.44-6.36-1.57-2.83-2.36-6.27-2.36-10.32v-25.68h7.2v24.72c0,4.32,1.09,7.64,3.28,9.96,2.19,2.32,5.17,3.48,8.96,3.48s6.96-1.2,9.2-3.6c2.24-2.4,3.36-5.89,3.36-10.48v-24.08h7.28Z"/>
      <path class="cls-2" d="M321.18,38.19v25.84c0,2.13.45,3.64,1.36,4.52.91.88,2.48,1.32,4.72,1.32h5.36v6.16h-6.56c-4.05,0-7.09-.93-9.12-2.8-2.03-1.87-3.04-4.93-3.04-9.2v-25.84h-5.68v-6h5.68v-11.04h7.28v11.04h11.44v6h-11.44Z"/>
      <path class="cls-2" d="M349.38,73.95c-3.33-1.87-5.95-4.52-7.84-7.96-1.89-3.44-2.84-7.43-2.84-11.96s.97-8.44,2.92-11.88c1.95-3.44,4.6-6.08,7.96-7.92,3.36-1.84,7.12-2.76,11.28-2.76s7.92.92,11.28,2.76c3.36,1.84,6.01,4.47,7.96,7.88,1.95,3.41,2.92,7.39,2.92,11.92s-1,8.52-3,11.96-4.71,6.09-8.12,7.96c-3.41,1.87-7.2,2.8-11.36,2.8s-7.83-.93-11.16-2.8ZM367.9,68.51c2.29-1.23,4.15-3.07,5.56-5.52,1.41-2.45,2.12-5.44,2.12-8.96s-.69-6.51-2.08-8.96c-1.39-2.45-3.2-4.28-5.44-5.48s-4.67-1.8-7.28-1.8-5.11.6-7.32,1.8-3.99,3.03-5.32,5.48c-1.33,2.45-2,5.44-2,8.96s.65,6.59,1.96,9.04c1.31,2.45,3.05,4.28,5.24,5.48,2.19,1.2,4.59,1.8,7.2,1.8s5.07-.61,7.36-1.84Z"/>
      <path class="cls-2" d="M454.47,33.5c2.67,1.41,4.77,3.53,6.32,6.36,1.55,2.83,2.32,6.27,2.32,10.32v25.84h-7.2v-24.8c0-4.37-1.08-7.72-3.24-10.04-2.16-2.32-5.08-3.48-8.76-3.48s-6.8,1.21-9.04,3.64c-2.24,2.43-3.36,5.93-3.36,10.52v24.16h-7.2v-24.8c0-4.37-1.08-7.72-3.24-10.04-2.16-2.32-5.08-3.48-8.76-3.48s-6.8,1.21-9.04,3.64c-2.24,2.43-3.36,5.93-3.36,10.52v24.16h-7.28v-43.84h7.28v6.32c1.44-2.29,3.37-4.05,5.8-5.28,2.43-1.23,5.11-1.84,8.04-1.84,3.68,0,6.93.83,9.76,2.48,2.83,1.65,4.93,4.08,6.32,7.28,1.23-3.09,3.25-5.49,6.08-7.2,2.83-1.71,5.97-2.56,9.44-2.56s6.45.71,9.12,2.12Z"/>
      <path class="cls-2" d="M475.03,42.15c1.81-3.39,4.31-6.01,7.48-7.88,3.17-1.87,6.71-2.8,10.6-2.8s7.17.83,10,2.48c2.83,1.65,4.93,3.74,6.32,6.24v-8h7.36v43.84h-7.36v-8.16c-1.44,2.56-3.59,4.68-6.44,6.36-2.85,1.68-6.17,2.52-9.96,2.52s-7.41-.96-10.56-2.88c-3.15-1.92-5.63-4.61-7.44-8.08-1.81-3.47-2.72-7.41-2.72-11.84s.91-8.41,2.72-11.8ZM507.43,45.38c-1.33-2.45-3.13-4.33-5.4-5.64-2.27-1.31-4.76-1.96-7.48-1.96s-5.2.64-7.44,1.92-4.03,3.15-5.36,5.6c-1.33,2.45-2,5.33-2,8.64s.67,6.28,2,8.76c1.33,2.48,3.12,4.37,5.36,5.68,2.24,1.31,4.72,1.96,7.44,1.96s5.21-.65,7.48-1.96c2.27-1.31,4.07-3.2,5.4-5.68,1.33-2.48,2-5.37,2-8.68s-.67-6.19-2-8.64Z"/>
      <path class="cls-2" d="M537.99,38.19v25.84c0,2.13.45,3.64,1.36,4.52.91.88,2.48,1.32,4.72,1.32h5.36v6.16h-6.56c-4.05,0-7.09-.93-9.12-2.8-2.03-1.87-3.04-4.93-3.04-9.2v-25.84h-5.68v-6h5.68v-11.04h7.28v11.04h11.44v6h-11.44Z"/>
      <path class="cls-2" d="M558.47,23.62c-.96-.96-1.44-2.13-1.44-3.52s.48-2.56,1.44-3.52c.96-.96,2.13-1.44,3.52-1.44s2.47.48,3.4,1.44c.93.96,1.4,2.13,1.4,3.52s-.47,2.56-1.4,3.52c-.93.96-2.07,1.44-3.4,1.44s-2.56-.48-3.52-1.44ZM565.51,32.18v43.84h-7.28v-43.84h7.28Z"/>
      <path class="cls-2" d="M583.35,70.03h21.52v6h-29.84v-6l21.28-31.92h-21.12v-5.92h29.52v5.92l-21.36,31.92Z"/>
      <path class="cls-2" d="M654.08,56.83h-35.04c.27,4.32,1.75,7.69,4.44,10.12,2.69,2.43,5.96,3.64,9.8,3.64,3.15,0,5.77-.73,7.88-2.2,2.11-1.47,3.59-3.43,4.44-5.88h7.84c-1.17,4.21-3.52,7.64-7.04,10.28-3.52,2.64-7.89,3.96-13.12,3.96-4.16,0-7.88-.93-11.16-2.8-3.28-1.87-5.85-4.52-7.72-7.96s-2.8-7.43-2.8-11.96.91-8.51,2.72-11.92c1.81-3.41,4.36-6.04,7.64-7.88s7.05-2.76,11.32-2.76,7.84.91,11.04,2.72c3.2,1.81,5.67,4.31,7.4,7.48,1.73,3.17,2.6,6.76,2.6,10.76,0,1.39-.08,2.85-.24,4.4ZM644.96,43.75c-1.23-2-2.89-3.52-5-4.56-2.11-1.04-4.44-1.56-7-1.56-3.68,0-6.81,1.17-9.4,3.52-2.59,2.35-4.07,5.6-4.44,9.76h27.68c0-2.77-.61-5.16-1.84-7.16Z"/>
      <path class="cls-1" d="M205.67,115.68c1.34-2.44,3.18-4.33,5.51-5.69,2.33-1.36,4.93-2.04,7.79-2.04,3.5,0,6.49.83,8.98,2.49,2.49,1.66,4.31,4,5.44,7.01h-3.67c-.89-2.12-2.26-3.78-4.1-4.97-1.84-1.19-4.05-1.79-6.65-1.79-2.3,0-4.37.54-6.21,1.61-1.83,1.08-3.28,2.62-4.32,4.64-1.05,2.02-1.57,4.35-1.57,7.01s.52,4.99,1.57,6.99c1.04,2,2.49,3.54,4.32,4.62,1.84,1.08,3.9,1.61,6.21,1.61,2.6,0,4.82-.59,6.65-1.77,1.84-1.18,3.2-2.81,4.1-4.91h3.67c-1.13,2.99-2.96,5.3-5.47,6.95-2.51,1.64-5.49,2.46-8.96,2.46-2.87,0-5.47-.68-7.79-2.04-2.33-1.36-4.17-3.25-5.51-5.67-1.35-2.42-2.02-5.17-2.02-8.24s.67-5.83,2.02-8.26Z"/>
      <path class="cls-1" d="M244.13,138.44c-1.84-1.03-3.28-2.49-4.35-4.39-1.06-1.9-1.59-4.11-1.59-6.65s.54-4.75,1.61-6.65c1.08-1.9,2.54-3.36,4.39-4.39,1.85-1.03,3.93-1.55,6.23-1.55s4.39.52,6.25,1.55c1.86,1.03,3.33,2.49,4.39,4.39,1.06,1.9,1.59,4.11,1.59,6.65s-.54,4.72-1.61,6.63-2.56,3.38-4.44,4.41c-1.88,1.03-3.97,1.55-6.27,1.55s-4.37-.51-6.21-1.55ZM254.81,136.16c1.37-.73,2.49-1.84,3.34-3.32.85-1.48,1.28-3.29,1.28-5.44s-.42-3.96-1.25-5.44c-.83-1.48-1.94-2.58-3.31-3.31-1.37-.73-2.87-1.1-4.48-1.1s-3.11.36-4.48,1.1c-1.37.73-2.47,1.84-3.29,3.31-.82,1.48-1.23,3.3-1.23,5.44s.41,3.97,1.23,5.44c.82,1.48,1.91,2.58,3.27,3.32,1.36.73,2.85,1.1,4.46,1.1s3.11-.36,4.48-1.1Z"/>
      <path class="cls-1" d="M287.02,117.43c1.85,1.81,2.78,4.43,2.78,7.86v14.34h-3.09v-13.98c0-2.66-.67-4.69-1.99-6.09-1.33-1.4-3.14-2.11-5.44-2.11s-4.24.75-5.64,2.24c-1.4,1.49-2.11,3.69-2.11,6.58v13.35h-3.14v-24.46h3.14v4.17c.78-1.49,1.9-2.64,3.36-3.43,1.46-.79,3.12-1.19,4.97-1.19,2.93,0,5.32.9,7.17,2.71Z"/>
      <path class="cls-1" d="M300.82,117.81v15.18c0,1.49.28,2.53.85,3.09.57.57,1.57.85,3,.85h2.87v2.69h-3.36c-2.21,0-3.85-.51-4.93-1.55-1.08-1.03-1.61-2.72-1.61-5.09v-15.18h-3.41v-2.64h3.41v-6.14h3.18v6.14h6.72v2.64h-6.72Z"/>
      <path class="cls-1" d="M312.75,120.75c1-1.9,2.39-3.36,4.17-4.39,1.78-1.03,3.79-1.55,6.03-1.55s4.34.54,6.03,1.62c1.68,1.08,2.9,2.45,3.65,4.12v-5.37h3.14v24.46h-3.14v-5.42c-.78,1.67-2.01,3.06-3.7,4.15-1.68,1.09-3.69,1.63-6.02,1.63s-4.2-.52-5.98-1.57c-1.78-1.04-3.16-2.52-4.17-4.43-1-1.91-1.5-4.12-1.5-6.63s.5-4.71,1.5-6.61ZM331.41,122.2c-.81-1.49-1.9-2.64-3.29-3.45s-2.92-1.21-4.59-1.21-3.29.39-4.66,1.17c-1.37.78-2.46,1.9-3.25,3.38-.79,1.48-1.19,3.23-1.19,5.26s.4,3.76,1.19,5.26,1.87,2.66,3.25,3.45c1.37.79,2.93,1.19,4.66,1.19s3.2-.4,4.59-1.21,2.49-1.95,3.29-3.45c.81-1.49,1.21-3.23,1.21-5.2s-.4-3.7-1.21-5.2Z"/>
      <path class="cls-1" d="M349.76,116.42c1.69-1.08,3.68-1.62,5.98-1.62s4.24.52,6,1.55c1.76,1.03,3.14,2.49,4.15,4.39,1,1.9,1.5,4.1,1.5,6.61s-.5,4.72-1.5,6.63c-1,1.91-2.39,3.39-4.17,4.43-1.78,1.05-3.77,1.57-5.98,1.57-2.33,0-4.34-.53-6.02-1.59-1.69-1.06-2.92-2.44-3.7-4.15v5.38h-3.09v-33.15h3.09v14.11c.81-1.7,2.05-3.09,3.74-4.17ZM363.02,122.09c-.79-1.48-1.87-2.6-3.25-3.38s-2.93-1.17-4.66-1.17-3.2.4-4.59,1.21c-1.39.81-2.49,1.95-3.29,3.45-.81,1.49-1.21,3.23-1.21,5.2s.4,3.7,1.21,5.2c.81,1.49,1.9,2.64,3.29,3.45,1.39.81,2.92,1.21,4.59,1.21s3.28-.4,4.66-1.19c1.37-.79,2.46-1.94,3.25-3.45.79-1.51,1.19-3.26,1.19-5.26s-.4-3.78-1.19-5.26Z"/>
      <path class="cls-1" d="M373.12,109.88c-.45-.45-.67-1-.67-1.66s.23-1.2.67-1.63c.45-.43.98-.65,1.61-.65s1.17.22,1.61.65c.45.43.67.98.67,1.63s-.23,1.21-.67,1.66c-.44.45-.98.67-1.61.67s-1.16-.22-1.61-.67ZM376.3,115.17v24.46h-3.14v-24.46h3.14Z"/>
      <path class="cls-1" d="M386.56,106.48v33.15h-3.14v-33.15h3.14Z"/>
      <path class="cls-1" d="M393.64,109.88c-.45-.45-.67-1-.67-1.66s.23-1.2.67-1.63c.45-.43.98-.65,1.61-.65s1.17.22,1.61.65c.45.43.67.98.67,1.63s-.23,1.21-.67,1.66c-.44.45-.98.67-1.61.67s-1.16-.22-1.61-.67ZM396.82,115.17v24.46h-3.14v-24.46h3.14Z"/>
      <path class="cls-1" d="M404.03,120.75c1.01-1.9,2.41-3.36,4.19-4.39,1.78-1.03,3.78-1.55,6.02-1.55s4.09.52,5.83,1.57c1.73,1.04,3,2.4,3.81,4.08v-13.98h3.14v33.15h-3.14v-5.47c-.75,1.7-1.97,3.1-3.67,4.19s-3.7,1.63-6,1.63-4.25-.52-6.03-1.57c-1.78-1.04-3.16-2.52-4.17-4.43-1-1.91-1.5-4.12-1.5-6.63s.51-4.71,1.52-6.61ZM422.67,122.2c-.81-1.49-1.9-2.64-3.29-3.45s-2.92-1.21-4.59-1.21-3.29.39-4.66,1.17c-1.37.78-2.46,1.9-3.25,3.38-.79,1.48-1.19,3.23-1.19,5.26s.4,3.76,1.19,5.26c.79,1.51,1.87,2.66,3.25,3.45,1.37.79,2.93,1.19,4.66,1.19s3.2-.4,4.59-1.21,2.49-1.95,3.29-3.45c.81-1.49,1.21-3.23,1.21-5.2s-.4-3.7-1.21-5.2Z"/>
      <path class="cls-1" d="M434.25,120.75c1-1.9,2.39-3.36,4.17-4.39,1.78-1.03,3.79-1.55,6.03-1.55s4.34.54,6.03,1.62c1.68,1.08,2.9,2.45,3.65,4.12v-5.37h3.14v24.46h-3.14v-5.42c-.78,1.67-2.01,3.06-3.7,4.15-1.68,1.09-3.69,1.63-6.02,1.63s-4.2-.52-5.98-1.57c-1.78-1.04-3.16-2.52-4.17-4.43-1-1.91-1.5-4.12-1.5-6.63s.5-4.71,1.5-6.61ZM452.91,122.2c-.81-1.49-1.9-2.64-3.29-3.45-1.39-.81-2.92-1.21-4.59-1.21s-3.29.39-4.66,1.17c-1.37.78-2.46,1.9-3.25,3.38-.79,1.48-1.19,3.23-1.19,5.26s.4,3.76,1.19,5.26,1.87,2.66,3.25,3.45c1.37.79,2.93,1.19,4.66,1.19s3.2-.4,4.59-1.21c1.39-.81,2.49-1.95,3.29-3.45.81-1.49,1.21-3.23,1.21-5.2s-.4-3.7-1.21-5.2Z"/>
      <path class="cls-1" d="M464.51,120.75c1.01-1.9,2.41-3.36,4.19-4.39,1.78-1.03,3.78-1.55,6.02-1.55s4.09.52,5.83,1.57c1.73,1.04,3,2.4,3.81,4.08v-13.98h3.14v33.15h-3.14v-5.47c-.75,1.7-1.97,3.1-3.67,4.19s-3.7,1.63-6,1.63-4.25-.52-6.03-1.57c-1.78-1.04-3.16-2.52-4.17-4.43-1-1.91-1.5-4.12-1.5-6.63s.51-4.71,1.52-6.61ZM483.15,122.2c-.81-1.49-1.9-2.64-3.29-3.45s-2.92-1.21-4.59-1.21-3.29.39-4.66,1.17c-1.37.78-2.46,1.9-3.25,3.38-.79,1.48-1.19,3.23-1.19,5.26s.4,3.76,1.19,5.26,1.87,2.66,3.25,3.45c1.37.79,2.93,1.19,4.66,1.19s3.2-.4,4.59-1.21,2.49-1.95,3.29-3.45c.81-1.49,1.21-3.23,1.21-5.2s-.4-3.7-1.21-5.2Z"/>
      <path class="cls-1" d="M516.7,128.61h-20.3c.09,1.85.54,3.43,1.35,4.75.81,1.31,1.87,2.31,3.18,2.98,1.32.67,2.75,1.01,4.3,1.01,2.03,0,3.74-.49,5.13-1.48,1.39-.99,2.31-2.32,2.76-3.99h3.31c-.6,2.39-1.87,4.34-3.83,5.85-1.95,1.51-4.41,2.26-7.37,2.26-2.3,0-4.36-.51-6.18-1.55-1.82-1.03-3.25-2.49-4.28-4.39-1.03-1.9-1.55-4.11-1.55-6.65s.51-4.76,1.52-6.68c1.01-1.91,2.43-3.37,4.25-4.39,1.82-1.01,3.9-1.52,6.23-1.52s4.37.51,6.11,1.52c1.75,1.02,3.09,2.38,4.03,4.1.94,1.72,1.41,3.62,1.41,5.71,0,1.08-.03,1.9-.09,2.46ZM512.51,121.39c-.76-1.28-1.8-2.26-3.11-2.91-1.32-.66-2.75-.98-4.3-.98-2.33,0-4.32.75-5.96,2.24-1.64,1.49-2.56,3.6-2.73,6.32h17.2c.03-1.82-.34-3.38-1.1-4.66Z"/>
    </g>
  </g>
</svg>