<svg width="3284" height="815" viewBox="0 0 3284 815" fill="none" xmlns="http://www.w3.org/2000/svg">
<rect width="3284" height="815" fill="white"/>
<g clip-path="url(#clip0_209_317)">
<path d="M207.449 229.627C211.148 209.567 228.734 195 249.252 195H294.754L284.67 251.444C281.068 271.607 263.43 286.3 242.823 286.3H197L207.449 229.627Z" fill="#6C2EF3"/>
<path d="M232.747 253.327C236.446 233.267 254.032 218.7 274.549 218.7H320.051L309.968 275.143C306.366 295.307 288.727 310 268.121 310H222.298L232.747 253.327Z" fill="#190F59"/>
<path d="M376.092 242.17H357.954L354.613 251.362H348.885L363.92 210.264H370.185L385.161 251.362H379.433L376.092 242.17ZM374.541 237.781L367.023 216.906L359.505 237.781H374.541Z" fill="#190F59"/>
<path d="M420.729 218.855V251.355H415.299V246.551C414.263 248.211 412.823 249.509 410.974 250.435C409.124 251.362 407.088 251.829 404.858 251.829C402.315 251.829 400.025 251.303 397.996 250.258C395.968 249.212 394.364 247.641 393.193 245.543C392.023 243.445 391.433 240.895 391.433 237.892V218.855H396.803V237.181C396.803 240.383 397.616 242.844 399.249 244.564C400.883 246.284 403.105 247.144 405.932 247.144C408.759 247.144 411.123 246.254 412.793 244.475C414.464 242.696 415.299 240.109 415.299 236.706V218.855H420.729Z" fill="#190F59"/>
<path d="M436.54 223.311V242.466C436.54 244.045 436.876 245.165 437.554 245.817C438.233 246.469 439.404 246.796 441.075 246.796H445.072V251.362H440.18C437.159 251.362 434.892 250.673 433.378 249.286C431.864 247.9 431.11 245.632 431.11 242.466V223.311H426.874V218.863H431.11V210.679H436.54V218.863H445.072V223.311H436.54Z" fill="#190F59"/>
<path d="M457.572 249.82C455.088 248.434 453.134 246.469 451.725 243.919C450.315 241.369 449.607 238.411 449.607 235.053C449.607 231.695 450.33 228.797 451.784 226.246C453.239 223.696 455.215 221.739 457.721 220.375C460.227 219.011 463.031 218.329 466.134 218.329C469.236 218.329 472.041 219.011 474.547 220.375C477.053 221.739 479.029 223.689 480.483 226.217C481.938 228.745 482.661 231.695 482.661 235.053C482.661 238.411 481.915 241.369 480.424 243.919C478.932 246.469 476.911 248.434 474.368 249.82C471.824 251.206 468.998 251.896 465.895 251.896C462.793 251.896 460.056 251.206 457.572 249.82ZM471.384 245.787C473.092 244.876 474.48 243.512 475.531 241.695C476.583 239.879 477.112 237.663 477.112 235.053C477.112 232.444 476.598 230.227 475.561 228.411C474.524 226.595 473.174 225.238 471.504 224.349C469.833 223.459 468.021 223.014 466.074 223.014C464.128 223.014 462.263 223.459 460.615 224.349C458.967 225.238 457.639 226.595 456.647 228.411C455.655 230.227 455.156 232.444 455.156 235.053C455.156 237.663 455.64 239.938 456.617 241.755C457.594 243.571 458.892 244.928 460.525 245.817C462.159 246.707 463.949 247.151 465.895 247.151C467.842 247.151 469.676 246.699 471.384 245.787Z" fill="#190F59"/>
<path d="M535.949 219.834C537.941 220.879 539.507 222.451 540.663 224.549C541.819 226.647 542.393 229.197 542.393 232.199V251.355H537.023V232.97C537.023 229.731 536.218 227.247 534.607 225.527C532.996 223.807 530.818 222.948 528.074 222.948C525.329 222.948 523.002 223.845 521.331 225.646C519.661 227.447 518.826 230.042 518.826 233.445V251.355H513.456V232.97C513.456 229.731 512.65 227.247 511.039 225.527C509.428 223.807 507.251 222.948 504.506 222.948C501.761 222.948 499.434 223.845 497.764 225.646C496.093 227.447 495.258 230.042 495.258 233.445V251.355H489.828V218.856H495.258V223.541C496.332 221.843 497.771 220.538 499.584 219.626C501.396 218.715 503.395 218.262 505.58 218.262C508.325 218.262 510.748 218.878 512.859 220.101C514.97 221.324 516.536 223.125 517.573 225.498C518.49 223.207 519.996 221.428 522.107 220.16C524.218 218.893 526.56 218.262 529.148 218.262C531.736 218.262 533.958 218.789 535.949 219.834Z" fill="#190F59"/>
<path d="M551.283 226.246C552.633 223.733 554.498 221.791 556.862 220.405C559.226 219.019 561.866 218.329 564.768 218.329C567.669 218.329 570.115 218.944 572.226 220.168C574.336 221.391 575.903 222.94 576.939 224.793V218.863H582.428V251.362H576.939V245.313C575.865 247.211 574.262 248.782 572.136 250.028C570.011 251.273 567.535 251.896 564.708 251.896C561.881 251.896 559.181 251.184 556.832 249.761C554.483 248.338 552.633 246.343 551.283 243.771C549.933 241.199 549.255 238.278 549.255 234.994C549.255 231.71 549.933 228.759 551.283 226.246ZM575.448 228.641C574.456 226.825 573.113 225.431 571.42 224.46C569.727 223.489 567.87 223.007 565.841 223.007C563.813 223.007 561.963 223.481 560.293 224.43C558.622 225.379 557.287 226.765 556.295 228.582C555.303 230.398 554.803 232.533 554.803 234.986C554.803 237.44 555.303 239.642 556.295 241.48C557.287 243.319 558.622 244.72 560.293 245.691C561.963 246.662 563.813 247.144 565.841 247.144C567.87 247.144 569.727 246.662 571.42 245.691C573.113 244.72 574.456 243.319 575.448 241.48C576.439 239.642 576.939 237.5 576.939 235.046C576.939 232.592 576.439 230.457 575.448 228.641Z" fill="#190F59"/>
<path d="M598.24 223.311V242.466C598.24 244.045 598.575 245.165 599.254 245.817C599.933 246.469 601.104 246.796 602.774 246.796H606.772V251.362H601.879C598.859 251.362 596.591 250.673 595.077 249.286C593.563 247.9 592.81 245.632 592.81 242.466V223.311H588.574V218.863H592.81V210.679H598.24V218.863H606.772V223.311H598.24Z" fill="#190F59"/>
<path d="M613.514 212.51C612.798 211.798 612.44 210.931 612.44 209.9C612.44 208.87 612.798 208.003 613.514 207.291C614.23 206.579 615.102 206.224 616.139 206.224C617.176 206.224 617.981 206.579 618.675 207.291C619.369 208.003 619.719 208.87 619.719 209.9C619.719 210.931 619.369 211.798 618.675 212.51C617.981 213.222 617.131 213.577 616.139 213.577C615.147 213.577 614.23 213.222 613.514 212.51ZM618.764 218.855V251.355H613.335V218.855H618.764Z" fill="#190F59"/>
<path d="M632.07 246.914H648.12V251.362H625.865V246.914L641.735 223.251H625.984V218.863H648V223.251L632.07 246.914Z" fill="#190F59"/>
<path d="M684.821 237.129H658.688C658.889 240.331 659.993 242.83 661.999 244.631C664.005 246.432 666.444 247.329 669.308 247.329C671.657 247.329 673.611 246.788 675.185 245.698C676.759 244.609 677.863 243.156 678.497 241.34H684.344C683.471 244.46 681.718 247.003 679.093 248.96C676.468 250.917 673.209 251.896 669.308 251.896C666.206 251.896 663.431 251.206 660.985 249.82C658.539 248.434 656.622 246.469 655.227 243.919C653.833 241.369 653.139 238.411 653.139 235.053C653.139 231.695 653.818 228.745 655.168 226.217C656.517 223.689 658.419 221.739 660.866 220.375C663.312 219.011 666.124 218.329 669.308 218.329C672.493 218.329 675.155 219.004 677.542 220.346C679.929 221.687 681.771 223.541 683.061 225.891C684.351 228.241 685 230.902 685 233.867C685 234.898 684.94 235.98 684.821 237.129ZM678.019 227.432C677.102 225.95 675.864 224.823 674.29 224.052C672.717 223.281 670.979 222.896 669.07 222.896C666.325 222.896 663.991 223.763 662.059 225.505C660.127 227.247 659.023 229.656 658.747 232.74H679.392C679.392 230.687 678.937 228.915 678.019 227.432Z" fill="#190F59"/>
<path d="M350.391 280.755C351.391 278.946 352.763 277.545 354.501 276.537C356.238 275.529 358.177 275.025 360.311 275.025C362.921 275.025 365.151 275.64 367.008 276.871C368.865 278.101 370.222 279.836 371.065 282.067H368.328C367.664 280.496 366.642 279.265 365.27 278.383C363.898 277.501 362.25 277.056 360.311 277.056C358.595 277.056 357.051 277.456 355.679 278.249C354.314 279.05 353.233 280.192 352.457 281.689C351.674 283.187 351.286 284.914 351.286 286.886C351.286 288.858 351.674 290.585 352.457 292.068C353.233 293.55 354.314 294.692 355.679 295.492C357.051 296.293 358.588 296.686 360.311 296.686C362.25 296.686 363.905 296.249 365.27 295.374C366.642 294.499 367.657 293.291 368.328 291.734H371.065C370.222 293.951 368.858 295.663 366.986 296.886C365.114 298.102 362.891 298.71 360.303 298.71C358.163 298.71 356.223 298.206 354.493 297.197C352.755 296.189 351.383 294.788 350.384 292.994C349.377 291.2 348.877 289.162 348.877 286.886C348.877 284.61 349.377 282.564 350.384 280.763L350.391 280.755Z" fill="#6C2EF3"/>
<path d="M379.075 297.627C377.703 296.864 376.629 295.782 375.831 294.373C375.04 292.965 374.645 291.326 374.645 289.443C374.645 287.56 375.048 285.922 375.846 284.514C376.651 283.105 377.74 282.023 379.12 281.259C380.5 280.496 382.051 280.11 383.766 280.11C385.482 280.11 387.04 280.496 388.428 281.259C389.815 282.023 390.911 283.105 391.702 284.514C392.492 285.922 392.888 287.56 392.888 289.443C392.888 291.326 392.485 292.942 391.687 294.358C390.889 295.774 389.778 296.864 388.375 297.627C386.973 298.391 385.415 298.777 383.699 298.777C381.984 298.777 380.44 298.398 379.068 297.627H379.075ZM387.04 295.937C388.062 295.396 388.897 294.573 389.531 293.476C390.165 292.379 390.486 291.037 390.486 289.443C390.486 287.85 390.173 286.508 389.554 285.411C388.935 284.313 388.107 283.498 387.085 282.957C386.063 282.416 384.945 282.141 383.744 282.141C382.543 282.141 381.424 282.408 380.403 282.957C379.381 283.498 378.561 284.321 377.949 285.411C377.337 286.508 377.032 287.857 377.032 289.443C377.032 291.03 377.337 292.386 377.949 293.476C378.561 294.573 379.373 295.389 380.388 295.937C381.402 296.478 382.513 296.753 383.714 296.753C384.915 296.753 386.034 296.486 387.055 295.937H387.04Z" fill="#6C2EF3"/>
<path d="M411.063 282.052C412.443 283.394 413.137 285.336 413.137 287.879V298.51H410.832V288.146C410.832 286.174 410.332 284.669 409.348 283.631C408.356 282.594 407.006 282.067 405.291 282.067C403.575 282.067 402.128 282.623 401.084 283.728C400.04 284.832 399.511 286.463 399.511 288.606V298.502H397.169V280.37H399.511V283.461C400.092 282.356 400.928 281.504 402.016 280.918C403.105 280.333 404.343 280.036 405.723 280.036C407.908 280.036 409.691 280.703 411.071 282.045L411.063 282.052Z" fill="#6C2EF3"/>
<path d="M421.355 282.334V293.587C421.355 294.692 421.564 295.463 421.989 295.878C422.414 296.3 423.16 296.508 424.227 296.508H426.367V298.502H423.861C422.213 298.502 420.99 298.124 420.184 297.353C419.379 296.59 418.984 295.337 418.984 293.58V282.327H416.44V280.37H418.984V275.818H421.355V280.37H426.367V282.327H421.355V282.334Z" fill="#6C2EF3"/>
<path d="M430.253 284.514C430.999 283.105 432.035 282.023 433.363 281.259C434.69 280.496 436.19 280.11 437.86 280.11C439.531 280.11 441.097 280.511 442.357 281.311C443.61 282.112 444.52 283.127 445.08 284.365V280.385H447.421V298.517H445.08V294.499C444.498 295.737 443.581 296.768 442.32 297.576C441.067 298.384 439.568 298.784 437.83 298.784C436.093 298.784 434.698 298.398 433.37 297.62C432.043 296.849 431.014 295.752 430.26 294.336C429.515 292.92 429.142 291.282 429.142 289.421C429.142 287.56 429.515 285.93 430.26 284.521L430.253 284.514ZM444.17 285.589C443.566 284.484 442.753 283.631 441.716 283.031C440.679 282.431 439.538 282.134 438.293 282.134C437.047 282.134 435.839 282.423 434.817 283.001C433.795 283.58 432.983 284.41 432.393 285.507C431.804 286.604 431.506 287.901 431.506 289.406C431.506 290.911 431.804 292.194 432.393 293.306C432.983 294.418 433.788 295.278 434.817 295.863C435.839 296.449 437.002 296.745 438.293 296.745C439.583 296.745 440.679 296.449 441.716 295.848C442.753 295.248 443.573 294.403 444.17 293.291C444.774 292.186 445.072 290.896 445.072 289.436C445.072 287.976 444.774 286.693 444.17 285.581V285.589Z" fill="#6C2EF3"/>
<path d="M457.855 281.304C459.116 280.503 460.6 280.103 462.315 280.103C464.031 280.103 465.478 280.488 466.79 281.252C468.103 282.015 469.132 283.098 469.885 284.506C470.631 285.915 471.004 287.546 471.004 289.406C471.004 291.267 470.631 292.905 469.885 294.321C469.14 295.737 468.103 296.834 466.775 297.605C465.448 298.384 463.964 298.769 462.315 298.769C460.578 298.769 459.079 298.376 457.826 297.59C456.565 296.805 455.648 295.782 455.066 294.514V298.502H452.761V273.928H455.066V284.388C455.67 283.127 456.595 282.097 457.855 281.296V281.304ZM467.745 285.507C467.156 284.41 466.35 283.58 465.321 283.001C464.292 282.423 463.136 282.134 461.845 282.134C460.555 282.134 459.459 282.431 458.422 283.031C457.386 283.631 456.565 284.477 455.968 285.589C455.364 286.693 455.066 287.983 455.066 289.443C455.066 290.904 455.364 292.186 455.968 293.298C456.573 294.403 457.386 295.255 458.422 295.856C459.459 296.456 460.6 296.753 461.845 296.753C463.091 296.753 464.292 296.456 465.321 295.871C466.343 295.285 467.156 294.432 467.745 293.313C468.334 292.194 468.632 290.896 468.632 289.414C468.632 287.931 468.334 286.612 467.745 285.514V285.507Z" fill="#6C2EF3"/>
<path d="M475.278 276.456C474.942 276.122 474.778 275.714 474.778 275.225C474.778 274.736 474.949 274.335 475.278 274.017C475.613 273.698 476.008 273.535 476.478 273.535C476.948 273.535 477.351 273.698 477.679 274.017C478.015 274.335 478.179 274.743 478.179 275.225C478.179 275.707 478.007 276.122 477.679 276.456C477.351 276.789 476.948 276.952 476.478 276.952C476.008 276.952 475.613 276.789 475.278 276.456ZM477.649 280.377V298.51H475.307V280.377H477.649Z" fill="#6C2EF3"/>
<path d="M485.301 273.935V298.51H482.959V273.935H485.301Z" fill="#6C2EF3"/>
<path d="M490.582 276.456C490.246 276.122 490.082 275.714 490.082 275.225C490.082 274.736 490.254 274.335 490.582 274.017C490.917 273.698 491.313 273.535 491.782 273.535C492.252 273.535 492.655 273.698 492.983 274.017C493.319 274.335 493.483 274.743 493.483 275.225C493.483 275.707 493.311 276.122 492.983 276.456C492.655 276.789 492.252 276.952 491.782 276.952C491.313 276.952 490.917 276.789 490.582 276.456ZM492.953 280.377V298.51H490.612V280.377H492.953Z" fill="#6C2EF3"/>
<path d="M498.331 284.514C499.084 283.105 500.128 282.023 501.456 281.259C502.783 280.496 504.275 280.11 505.945 280.11C507.616 280.11 508.996 280.496 510.293 281.274C511.584 282.045 512.531 283.053 513.135 284.299V273.935H515.477V298.51H513.135V294.455C512.576 295.715 511.666 296.753 510.398 297.561C509.13 298.369 507.638 298.769 505.923 298.769C504.208 298.769 502.753 298.384 501.426 297.605C500.098 296.834 499.069 295.737 498.316 294.321C497.57 292.905 497.197 291.267 497.197 289.406C497.197 287.546 497.577 285.915 498.331 284.506V284.514ZM512.233 285.589C511.628 284.484 510.816 283.631 509.779 283.031C508.742 282.431 507.601 282.134 506.356 282.134C505.11 282.134 503.902 282.423 502.88 283.001C501.858 283.58 501.045 284.41 500.456 285.507C499.867 286.604 499.569 287.901 499.569 289.406C499.569 290.911 499.867 292.194 500.456 293.306C501.045 294.425 501.851 295.277 502.88 295.863C503.902 296.449 505.065 296.745 506.356 296.745C507.646 296.745 508.742 296.449 509.779 295.848C510.816 295.248 511.636 294.403 512.233 293.291C512.837 292.186 513.135 290.896 513.135 289.436C513.135 287.976 512.837 286.693 512.233 285.581V285.589Z" fill="#6C2EF3"/>
<path d="M520.869 284.514C521.615 283.105 522.652 282.023 523.979 281.259C525.307 280.496 526.806 280.11 528.476 280.11C530.147 280.11 531.713 280.511 532.974 281.311C534.227 282.112 535.136 283.127 535.696 284.365V280.385H538.038V298.517H535.696V294.499C535.114 295.737 534.197 296.768 532.936 297.576C531.683 298.384 530.184 298.784 528.447 298.784C526.709 298.784 525.314 298.398 523.987 297.62C522.659 296.849 521.63 295.752 520.877 294.336C520.131 292.92 519.758 291.282 519.758 289.421C519.758 287.56 520.131 285.93 520.877 284.521L520.869 284.514ZM534.786 285.589C534.182 284.484 533.369 283.631 532.332 283.031C531.296 282.431 530.154 282.134 528.909 282.134C527.663 282.134 526.455 282.423 525.433 283.001C524.412 283.58 523.599 284.41 523.01 285.507C522.42 286.604 522.122 287.901 522.122 289.406C522.122 290.911 522.42 292.194 523.01 293.306C523.599 294.418 524.404 295.278 525.433 295.863C526.455 296.449 527.619 296.745 528.909 296.745C530.199 296.745 531.296 296.449 532.332 295.848C533.369 295.248 534.189 294.403 534.786 293.291C535.39 292.186 535.688 290.896 535.688 289.436C535.688 287.976 535.39 286.693 534.786 285.581V285.589Z" fill="#6C2EF3"/>
<path d="M543.437 284.514C544.191 283.105 545.235 282.023 546.562 281.259C547.89 280.496 549.381 280.11 551.052 280.11C552.723 280.11 554.102 280.496 555.4 281.274C556.69 282.045 557.638 283.053 558.242 284.299V273.935H560.584V298.51H558.242V294.455C557.682 295.715 556.772 296.753 555.505 297.561C554.237 298.369 552.745 298.769 551.03 298.769C549.314 298.769 547.86 298.384 546.532 297.605C545.205 296.834 544.176 295.737 543.422 294.321C542.677 292.905 542.304 291.267 542.304 289.406C542.304 287.546 542.684 285.915 543.437 284.506V284.514ZM557.339 285.589C556.735 284.484 555.922 283.631 554.886 283.031C553.849 282.431 552.708 282.134 551.462 282.134C550.217 282.134 549.009 282.423 547.987 283.001C546.965 283.58 546.152 284.41 545.563 285.507C544.974 286.604 544.675 287.901 544.675 289.406C544.675 290.911 544.974 292.194 545.563 293.306C546.152 294.418 546.958 295.277 547.987 295.863C549.009 296.449 550.172 296.745 551.462 296.745C552.753 296.745 553.849 296.449 554.886 295.848C555.922 295.248 556.743 294.403 557.339 293.291C557.943 292.186 558.242 290.896 558.242 289.436C558.242 287.976 557.943 286.693 557.339 285.581V285.589Z" fill="#6C2EF3"/>
<path d="M582.361 290.34H567.221C567.288 291.712 567.624 292.883 568.228 293.862C568.832 294.833 569.623 295.574 570.6 296.071C571.584 296.567 572.651 296.819 573.807 296.819C575.321 296.819 576.596 296.456 577.633 295.722C578.67 294.988 579.356 294.002 579.691 292.764H582.16C581.712 294.536 580.765 295.982 579.303 297.101C577.849 298.221 576.014 298.777 573.807 298.777C572.091 298.777 570.555 298.398 569.198 297.627C567.84 296.864 566.774 295.782 566.006 294.373C565.237 292.965 564.85 291.326 564.85 289.443C564.85 287.56 565.23 285.915 565.983 284.491C566.737 283.075 567.796 281.993 569.153 281.237C570.51 280.488 572.062 280.11 573.799 280.11C575.537 280.11 577.059 280.488 578.356 281.237C579.661 281.993 580.661 283.001 581.362 284.276C582.063 285.551 582.414 286.96 582.414 288.509C582.414 289.31 582.391 289.918 582.346 290.333L582.361 290.34ZM579.236 284.988C578.67 284.039 577.894 283.313 576.917 282.831C575.932 282.342 574.866 282.104 573.71 282.104C571.972 282.104 570.488 282.66 569.265 283.765C568.042 284.869 567.356 286.434 567.229 288.45H580.057C580.079 287.101 579.803 285.944 579.236 284.995V284.988Z" fill="#6C2EF3"/>
</g>
<g clip-path="url(#clip1_209_317)">
<path d="M992.385 229.627C996.061 209.567 1013.54 195 1033.93 195H1079.15L1069.13 251.444C1065.55 271.607 1048.02 286.3 1027.54 286.3H982L992.385 229.627Z" fill="#05F2DB"/>
<path d="M1017.53 253.327C1021.2 233.267 1038.68 218.7 1059.07 218.7H1104.3L1094.27 275.143C1090.69 295.307 1073.16 310 1052.68 310H1007.14L1017.53 253.327Z" fill="#00AAFF"/>
<path d="M1159.99 242.17H1141.96L1138.64 251.362H1132.95L1147.89 210.264H1154.12L1169 251.362H1163.31L1159.99 242.17ZM1158.45 237.781L1150.98 216.906L1143.51 237.781H1158.45Z" fill="white"/>
<path d="M1204.35 218.855V251.355H1198.96V246.551C1197.93 248.211 1196.5 249.509 1194.66 250.435C1192.82 251.362 1190.8 251.829 1188.58 251.829C1186.05 251.829 1183.78 251.303 1181.76 250.258C1179.74 249.212 1178.15 247.641 1176.99 245.543C1175.82 243.445 1175.24 240.895 1175.24 237.892V218.855H1180.57V237.181C1180.57 240.383 1181.38 242.844 1183.01 244.564C1184.63 246.284 1186.84 247.144 1189.65 247.144C1192.46 247.144 1194.81 246.254 1196.47 244.475C1198.13 242.696 1198.96 240.109 1198.96 236.706V218.855H1204.35Z" fill="white"/>
<path d="M1220.07 223.311V242.466C1220.07 244.045 1220.4 245.165 1221.08 245.817C1221.75 246.469 1222.91 246.796 1224.57 246.796H1228.55V251.362H1223.68C1220.68 251.362 1218.43 250.673 1216.92 249.286C1215.42 247.9 1214.67 245.632 1214.67 242.466V223.311H1210.46V218.863H1214.67V210.679H1220.07V218.863H1228.55V223.311H1220.07Z" fill="white"/>
<path d="M1240.97 249.82C1238.5 248.434 1236.56 246.469 1235.16 243.919C1233.76 241.369 1233.05 238.411 1233.05 235.053C1233.05 231.695 1233.77 228.797 1235.22 226.246C1236.66 223.696 1238.63 221.739 1241.12 220.375C1243.61 219.011 1246.4 218.329 1249.48 218.329C1252.56 218.329 1255.35 219.011 1257.84 220.375C1260.33 221.739 1262.3 223.689 1263.74 226.217C1265.19 228.745 1265.9 231.695 1265.9 235.053C1265.9 238.411 1265.16 241.369 1263.68 243.919C1262.2 246.469 1260.19 248.434 1257.66 249.82C1255.13 251.206 1252.33 251.896 1249.24 251.896C1246.16 251.896 1243.44 251.206 1240.97 249.82ZM1254.7 245.787C1256.39 244.876 1257.77 243.512 1258.82 241.695C1259.86 239.879 1260.39 237.663 1260.39 235.053C1260.39 232.444 1259.88 230.227 1258.85 228.411C1257.82 226.595 1256.48 225.238 1254.82 224.349C1253.16 223.459 1251.35 223.014 1249.42 223.014C1247.49 223.014 1245.63 223.459 1243.99 224.349C1242.36 225.238 1241.04 226.595 1240.05 228.411C1239.07 230.227 1238.57 232.444 1238.57 235.053C1238.57 237.663 1239.05 239.938 1240.02 241.755C1240.99 243.571 1242.28 244.928 1243.91 245.817C1245.53 246.707 1247.31 247.151 1249.24 247.151C1251.18 247.151 1253 246.699 1254.7 245.787Z" fill="white"/>
<path d="M1318.87 219.834C1320.84 220.879 1322.4 222.451 1323.55 224.549C1324.7 226.647 1325.27 229.197 1325.27 232.199V251.355H1319.93V232.97C1319.93 229.731 1319.13 227.247 1317.53 225.527C1315.93 223.807 1313.77 222.948 1311.04 222.948C1308.31 222.948 1306 223.845 1304.34 225.646C1302.68 227.447 1301.85 230.042 1301.85 233.445V251.355H1296.51V232.97C1296.51 229.731 1295.71 227.247 1294.11 225.527C1292.51 223.807 1290.34 222.948 1287.62 222.948C1284.89 222.948 1282.58 223.845 1280.91 225.646C1279.25 227.447 1278.42 230.042 1278.42 233.445V251.355H1273.03V218.856H1278.42V223.541C1279.49 221.843 1280.92 220.538 1282.72 219.626C1284.52 218.715 1286.51 218.262 1288.68 218.262C1291.41 218.262 1293.82 218.878 1295.92 220.101C1298.01 221.324 1299.57 223.125 1300.6 225.498C1301.51 223.207 1303.01 221.428 1305.11 220.16C1307.21 218.893 1309.53 218.262 1312.11 218.262C1314.68 218.262 1316.89 218.789 1318.87 219.834Z" fill="white"/>
<path d="M1334.11 226.246C1335.45 223.733 1337.3 221.791 1339.65 220.405C1342 219.019 1344.62 218.329 1347.51 218.329C1350.39 218.329 1352.82 218.944 1354.92 220.168C1357.02 221.391 1358.57 222.94 1359.6 224.793V218.863H1365.06V251.362H1359.6V245.313C1358.54 247.211 1356.94 248.782 1354.83 250.028C1352.72 251.273 1350.26 251.896 1347.45 251.896C1344.64 251.896 1341.95 251.184 1339.62 249.761C1337.29 248.338 1335.45 246.343 1334.11 243.771C1332.76 241.199 1332.09 238.278 1332.09 234.994C1332.09 231.71 1332.76 228.759 1334.11 226.246ZM1358.12 228.641C1357.14 226.825 1355.8 225.431 1354.12 224.46C1352.44 223.489 1350.59 223.007 1348.57 223.007C1346.56 223.007 1344.72 223.481 1343.06 224.43C1341.4 225.379 1340.07 226.765 1339.09 228.582C1338.1 230.398 1337.6 232.533 1337.6 234.986C1337.6 237.44 1338.1 239.642 1339.09 241.48C1340.07 243.319 1341.4 244.72 1343.06 245.691C1344.72 246.662 1346.56 247.144 1348.57 247.144C1350.59 247.144 1352.44 246.662 1354.12 245.691C1355.8 244.72 1357.14 243.319 1358.12 241.48C1359.11 239.642 1359.6 237.5 1359.6 235.046C1359.6 232.592 1359.11 230.457 1358.12 228.641Z" fill="white"/>
<path d="M1380.77 223.311V242.466C1380.77 244.045 1381.11 245.165 1381.78 245.817C1382.46 246.469 1383.62 246.796 1385.28 246.796H1389.25V251.362H1384.39C1381.39 251.362 1379.13 250.673 1377.63 249.286C1376.13 247.9 1375.38 245.632 1375.38 242.466V223.311H1371.17V218.863H1375.38V210.679H1380.77V218.863H1389.25V223.311H1380.77Z" fill="white"/>
<path d="M1395.95 212.51C1395.24 211.798 1394.89 210.931 1394.89 209.9C1394.89 208.87 1395.24 208.003 1395.95 207.291C1396.66 206.579 1397.53 206.224 1398.56 206.224C1399.59 206.224 1400.39 206.579 1401.08 207.291C1401.77 208.003 1402.12 208.87 1402.12 209.9C1402.12 210.931 1401.77 211.798 1401.08 212.51C1400.39 213.222 1399.55 213.577 1398.56 213.577C1397.58 213.577 1396.66 213.222 1395.95 212.51ZM1401.17 218.855V251.355H1395.78V218.855H1401.17Z" fill="white"/>
<path d="M1414.4 246.914H1430.35V251.362H1408.23V246.914L1424 223.251H1408.35V218.863H1430.23V223.251L1414.4 246.914Z" fill="white"/>
<path d="M1466.82 237.129H1440.85C1441.05 240.331 1442.15 242.83 1444.14 244.631C1446.13 246.432 1448.56 247.329 1451.4 247.329C1453.74 247.329 1455.68 246.788 1457.25 245.698C1458.81 244.609 1459.91 243.156 1460.54 241.34H1466.35C1465.48 244.46 1463.74 247.003 1461.13 248.96C1458.52 250.917 1455.28 251.896 1451.4 251.896C1448.32 251.896 1445.56 251.206 1443.13 249.82C1440.7 248.434 1438.8 246.469 1437.41 243.919C1436.02 241.369 1435.33 238.411 1435.33 235.053C1435.33 231.695 1436.01 228.745 1437.35 226.217C1438.69 223.689 1440.58 221.739 1443.01 220.375C1445.45 219.011 1448.24 218.329 1451.4 218.329C1454.57 218.329 1457.22 219.004 1459.59 220.346C1461.96 221.687 1463.79 223.541 1465.07 225.891C1466.36 228.241 1467 230.902 1467 233.867C1467 234.898 1466.94 235.98 1466.82 237.129ZM1460.06 227.432C1459.15 225.95 1457.92 224.823 1456.36 224.052C1454.79 223.281 1453.06 222.896 1451.17 222.896C1448.44 222.896 1446.12 223.763 1444.2 225.505C1442.28 227.247 1441.18 229.656 1440.91 232.74H1461.43C1461.43 230.687 1460.97 228.915 1460.06 227.432Z" fill="white"/>
<path d="M1134.45 280.755C1135.44 278.946 1136.81 277.545 1138.53 276.537C1140.26 275.529 1142.19 275.025 1144.31 275.025C1146.9 275.025 1149.12 275.64 1150.96 276.871C1152.81 278.101 1154.16 279.836 1155 282.067H1152.27C1151.62 280.496 1150.6 279.265 1149.24 278.383C1147.87 277.501 1146.23 277.056 1144.31 277.056C1142.6 277.056 1141.07 277.456 1139.7 278.25C1138.35 279.05 1137.27 280.192 1136.5 281.689C1135.72 283.187 1135.34 284.914 1135.34 286.886C1135.34 288.858 1135.72 290.585 1136.5 292.068C1137.27 293.55 1138.35 294.692 1139.7 295.493C1141.07 296.293 1142.59 296.686 1144.31 296.686C1146.23 296.686 1147.88 296.249 1149.24 295.374C1150.6 294.499 1151.61 293.291 1152.27 291.734H1155C1154.16 293.951 1152.8 295.663 1150.94 296.886C1149.08 298.109 1146.87 298.71 1144.3 298.71C1142.17 298.71 1140.24 298.206 1138.53 297.198C1136.8 296.189 1135.43 294.788 1134.44 292.994C1133.44 291.2 1132.94 289.162 1132.94 286.886C1132.94 284.61 1133.44 282.564 1134.44 280.763L1134.45 280.755Z" fill="#05F2DB"/>
<path d="M1162.96 297.627C1161.59 296.864 1160.52 295.782 1159.73 294.373C1158.94 292.965 1158.55 291.326 1158.55 289.443C1158.55 287.56 1158.95 285.922 1159.75 284.514C1160.55 283.105 1161.63 282.023 1163 281.259C1164.37 280.496 1165.91 280.11 1167.62 280.11C1169.32 280.11 1170.87 280.496 1172.25 281.259C1173.63 282.023 1174.72 283.105 1175.5 284.514C1176.29 285.922 1176.68 287.56 1176.68 289.443C1176.68 291.326 1176.28 292.942 1175.49 294.358C1174.7 295.774 1173.59 296.864 1172.2 297.627C1170.81 298.391 1169.26 298.777 1167.55 298.777C1165.85 298.777 1164.31 298.398 1162.95 297.627H1162.96ZM1170.87 295.937C1171.89 295.396 1172.72 294.573 1173.35 293.476C1173.98 292.379 1174.3 291.037 1174.3 289.443C1174.3 287.85 1173.99 286.508 1173.37 285.411C1172.75 284.313 1171.93 283.498 1170.92 282.957C1169.9 282.416 1168.79 282.141 1167.6 282.141C1166.4 282.141 1165.29 282.408 1164.28 282.957C1163.26 283.498 1162.44 284.321 1161.84 285.411C1161.23 286.508 1160.92 287.857 1160.92 289.443C1160.92 291.03 1161.23 292.386 1161.84 293.476C1162.44 294.573 1163.25 295.389 1164.26 295.937C1165.27 296.478 1166.37 296.753 1167.57 296.753C1168.76 296.753 1169.87 296.486 1170.89 295.937H1170.87Z" fill="#05F2DB"/>
<path d="M1194.75 282.053C1196.12 283.394 1196.81 285.337 1196.81 287.879V298.51H1194.52V288.146C1194.52 286.174 1194.02 284.669 1193.04 283.632C1192.06 282.594 1190.71 282.067 1189.01 282.067C1187.31 282.067 1185.87 282.623 1184.83 283.728C1183.79 284.832 1183.27 286.463 1183.27 288.606V298.502H1180.94V280.37H1183.27V283.461C1183.84 282.356 1184.67 281.504 1185.76 280.918C1186.84 280.333 1188.07 280.036 1189.44 280.036C1191.61 280.036 1193.38 280.703 1194.75 282.045L1194.75 282.053Z" fill="#05F2DB"/>
<path d="M1204.98 282.334V293.587C1204.98 294.692 1205.18 295.463 1205.61 295.878C1206.03 296.301 1206.77 296.508 1207.83 296.508H1209.96V298.502H1207.47C1205.83 298.502 1204.61 298.124 1203.81 297.353C1203.01 296.59 1202.62 295.337 1202.62 293.58V282.327H1200.09V280.37H1202.62V275.818H1204.98V280.37H1209.96V282.327H1204.98V282.334Z" fill="#05F2DB"/>
<path d="M1213.82 284.514C1214.56 283.105 1215.59 282.023 1216.91 281.259C1218.23 280.496 1219.72 280.11 1221.38 280.11C1223.04 280.11 1224.6 280.511 1225.85 281.311C1227.09 282.112 1228 283.127 1228.55 284.365V280.385H1230.88V298.517H1228.55V294.499C1227.98 295.737 1227.06 296.768 1225.81 297.576C1224.57 298.384 1223.08 298.784 1221.35 298.784C1219.62 298.784 1218.24 298.398 1216.92 297.62C1215.6 296.849 1214.58 295.752 1213.83 294.336C1213.09 292.92 1212.71 291.282 1212.71 289.421C1212.71 287.56 1213.09 285.93 1213.83 284.521L1213.82 284.514ZM1227.65 285.589C1227.05 284.484 1226.24 283.631 1225.21 283.031C1224.18 282.431 1223.05 282.134 1221.81 282.134C1220.57 282.134 1219.37 282.423 1218.36 283.001C1217.34 283.58 1216.53 284.41 1215.95 285.507C1215.36 286.604 1215.06 287.901 1215.06 289.406C1215.06 290.911 1215.36 292.194 1215.95 293.306C1216.53 294.418 1217.33 295.278 1218.36 295.863C1219.37 296.449 1220.53 296.745 1221.81 296.745C1223.09 296.745 1224.18 296.449 1225.21 295.848C1226.24 295.248 1227.06 294.403 1227.65 293.291C1228.25 292.186 1228.55 290.896 1228.55 289.436C1228.55 287.976 1228.25 286.693 1227.65 285.581V285.589Z" fill="#05F2DB"/>
<path d="M1241.25 281.304C1242.5 280.503 1243.98 280.103 1245.68 280.103C1247.39 280.103 1248.83 280.488 1250.13 281.252C1251.44 282.015 1252.46 283.098 1253.21 284.506C1253.95 285.915 1254.32 287.546 1254.32 289.406C1254.32 291.267 1253.95 292.905 1253.21 294.321C1252.47 295.737 1251.44 296.834 1250.12 297.605C1248.8 298.384 1247.32 298.769 1245.68 298.769C1243.96 298.769 1242.47 298.376 1241.22 297.59C1239.97 296.805 1239.06 295.782 1238.48 294.514V298.502H1236.19V273.928H1238.48V284.388C1239.08 283.127 1240 282.097 1241.25 281.296V281.304ZM1251.08 285.507C1250.49 284.41 1249.69 283.58 1248.67 283.001C1247.66 282.423 1246.5 282.134 1245.22 282.134C1243.94 282.134 1242.85 282.431 1241.82 283.031C1240.78 283.631 1239.97 284.477 1239.38 285.589C1238.78 286.693 1238.48 287.983 1238.48 289.443C1238.48 290.904 1238.78 292.186 1239.38 293.298C1239.98 294.403 1240.78 295.255 1241.82 295.856C1242.85 296.456 1243.98 296.753 1245.22 296.753C1246.46 296.753 1247.65 296.456 1248.67 295.871C1249.69 295.285 1250.49 294.432 1251.08 293.313C1251.67 292.194 1251.96 290.896 1251.96 289.414C1251.96 287.931 1251.67 286.612 1251.08 285.514V285.507Z" fill="#05F2DB"/>
<path d="M1258.57 276.456C1258.23 276.122 1258.07 275.714 1258.07 275.225C1258.07 274.736 1258.24 274.335 1258.57 274.017C1258.9 273.698 1259.29 273.535 1259.76 273.535C1260.23 273.535 1260.63 273.698 1260.95 274.017C1261.29 274.335 1261.45 274.743 1261.45 275.225C1261.45 275.707 1261.28 276.122 1260.95 276.456C1260.63 276.789 1260.23 276.952 1259.76 276.952C1259.29 276.952 1258.9 276.789 1258.57 276.456ZM1260.92 280.377V298.51H1258.6V280.377H1260.92Z" fill="#05F2DB"/>
<path d="M1268.53 273.935V298.51H1266.2V273.935H1268.53Z" fill="#05F2DB"/>
<path d="M1273.78 276.456C1273.44 276.122 1273.28 275.714 1273.28 275.225C1273.28 274.736 1273.45 274.335 1273.78 274.017C1274.11 273.698 1274.5 273.535 1274.97 273.535C1275.44 273.535 1275.84 273.698 1276.16 274.017C1276.5 274.335 1276.66 274.743 1276.66 275.225C1276.66 275.707 1276.49 276.122 1276.16 276.456C1275.84 276.789 1275.44 276.952 1274.97 276.952C1274.5 276.952 1274.11 276.789 1273.78 276.456ZM1276.13 280.377V298.51H1273.81V280.377H1276.13Z" fill="#05F2DB"/>
<path d="M1281.48 284.514C1282.23 283.105 1283.26 282.023 1284.58 281.259C1285.9 280.496 1287.39 280.11 1289.05 280.11C1290.71 280.11 1292.08 280.496 1293.37 281.274C1294.65 282.045 1295.59 283.053 1296.19 284.299V273.935H1298.52V298.51H1296.19V294.455C1295.64 295.715 1294.73 296.753 1293.47 297.561C1292.21 298.369 1290.73 298.769 1289.02 298.769C1287.32 298.769 1285.87 298.384 1284.55 297.605C1283.23 296.834 1282.21 295.737 1281.46 294.321C1280.72 292.905 1280.35 291.267 1280.35 289.406C1280.35 287.546 1280.73 285.915 1281.48 284.506V284.514ZM1295.29 285.589C1294.69 284.484 1293.89 283.632 1292.86 283.031C1291.83 282.431 1290.69 282.134 1289.45 282.134C1288.22 282.134 1287.02 282.423 1286 283.001C1284.98 283.58 1284.18 284.41 1283.59 285.507C1283.01 286.604 1282.71 287.901 1282.71 289.406C1282.71 290.911 1283.01 292.194 1283.59 293.306C1284.18 294.425 1284.98 295.278 1286 295.863C1287.02 296.449 1288.17 296.745 1289.45 296.745C1290.74 296.745 1291.83 296.449 1292.86 295.848C1293.89 295.248 1294.7 294.403 1295.29 293.291C1295.9 292.186 1296.19 290.896 1296.19 289.436C1296.19 287.976 1295.9 286.693 1295.29 285.581V285.589Z" fill="#05F2DB"/>
<path d="M1303.88 284.514C1304.62 283.105 1305.65 282.023 1306.97 281.259C1308.29 280.496 1309.78 280.11 1311.44 280.11C1313.1 280.11 1314.66 280.511 1315.91 281.311C1317.15 282.112 1318.06 283.127 1318.61 284.365V280.385H1320.94V298.517H1318.61V294.499C1318.04 295.737 1317.12 296.768 1315.87 297.576C1314.63 298.384 1313.14 298.784 1311.41 298.784C1309.68 298.784 1308.3 298.398 1306.98 297.62C1305.66 296.849 1304.63 295.752 1303.89 294.336C1303.14 292.92 1302.77 291.282 1302.77 289.421C1302.77 287.56 1303.14 285.93 1303.89 284.521L1303.88 284.514ZM1317.71 285.589C1317.11 284.484 1316.3 283.631 1315.27 283.031C1314.24 282.431 1313.11 282.134 1311.87 282.134C1310.63 282.134 1309.43 282.423 1308.41 283.001C1307.4 283.58 1306.59 284.41 1306.01 285.507C1305.42 286.604 1305.12 287.901 1305.12 289.406C1305.12 290.911 1305.42 292.194 1306.01 293.306C1306.59 294.418 1307.39 295.278 1308.41 295.863C1309.43 296.449 1310.59 296.745 1311.87 296.745C1313.15 296.745 1314.24 296.449 1315.27 295.848C1316.3 295.248 1317.12 294.403 1317.71 293.291C1318.31 292.186 1318.61 290.896 1318.61 289.436C1318.61 287.976 1318.31 286.693 1317.71 285.581V285.589Z" fill="#05F2DB"/>
<path d="M1326.31 284.514C1327.06 283.105 1328.09 282.023 1329.41 281.259C1330.73 280.496 1332.22 280.11 1333.88 280.11C1335.54 280.11 1336.91 280.496 1338.2 281.274C1339.48 282.045 1340.42 283.053 1341.02 284.299V273.935H1343.35V298.51H1341.02V294.455C1340.47 295.715 1339.56 296.753 1338.3 297.561C1337.04 298.369 1335.56 298.769 1333.85 298.769C1332.15 298.769 1330.7 298.384 1329.38 297.605C1328.06 296.834 1327.04 295.737 1326.29 294.321C1325.55 292.905 1325.18 291.267 1325.18 289.406C1325.18 287.546 1325.56 285.915 1326.31 284.506V284.514ZM1340.12 285.589C1339.52 284.484 1338.72 283.632 1337.69 283.031C1336.66 282.431 1335.52 282.134 1334.28 282.134C1333.05 282.134 1331.84 282.423 1330.83 283.001C1329.81 283.58 1329.01 284.41 1328.42 285.507C1327.83 286.604 1327.54 287.901 1327.54 289.406C1327.54 290.911 1327.83 292.194 1328.42 293.306C1329.01 294.425 1329.81 295.278 1330.83 295.863C1331.84 296.449 1333 296.745 1334.28 296.745C1335.57 296.745 1336.66 296.449 1337.69 295.848C1338.72 295.248 1339.53 294.403 1340.12 293.291C1340.72 292.186 1341.02 290.896 1341.02 289.436C1341.02 287.976 1340.72 286.693 1340.12 285.581V285.589Z" fill="#05F2DB"/>
<path d="M1364.99 290.34H1349.95C1350.01 291.712 1350.35 292.883 1350.95 293.862C1351.55 294.833 1352.33 295.574 1353.3 296.071C1354.28 296.567 1355.34 296.819 1356.49 296.819C1358 296.819 1359.26 296.456 1360.29 295.722C1361.32 294.988 1362.01 294.002 1362.34 292.764H1364.79C1364.35 294.536 1363.41 295.982 1361.95 297.101C1360.51 298.221 1358.68 298.777 1356.49 298.777C1354.79 298.777 1353.26 298.398 1351.91 297.627C1350.56 296.864 1349.5 295.782 1348.74 294.373C1347.97 292.965 1347.59 291.326 1347.59 289.443C1347.59 287.56 1347.97 285.915 1348.72 284.491C1349.46 283.075 1350.52 281.993 1351.87 281.237C1353.21 280.488 1354.76 280.11 1356.48 280.11C1358.21 280.11 1359.72 280.488 1361.01 281.237C1362.31 281.993 1363.3 283.001 1364 284.276C1364.7 285.551 1365.04 286.96 1365.04 288.509C1365.04 289.31 1365.02 289.918 1364.98 290.333L1364.99 290.34ZM1361.89 284.988C1361.32 284.039 1360.55 283.313 1359.58 282.831C1358.6 282.342 1357.54 282.104 1356.39 282.104C1354.67 282.104 1353.19 282.66 1351.98 283.765C1350.76 284.869 1350.08 286.434 1349.95 288.45H1362.7C1362.72 287.101 1362.45 285.944 1361.89 284.995V284.988Z" fill="#05F2DB"/>
</g>
<g clip-path="url(#clip2_209_317)">
<path d="M207.449 560.627C211.148 540.567 228.734 526 249.252 526H294.754L284.67 582.444C281.068 602.607 263.43 617.3 242.823 617.3H197L207.449 560.627Z" fill="#B5B5B5"/>
<path d="M232.747 584.327C236.446 564.267 254.032 549.7 274.549 549.7H320.051L309.968 606.143C306.366 626.307 288.727 641 268.121 641H222.298L232.747 584.327Z" fill="white"/>
<path d="M376.092 573.17H357.954L354.613 582.362H348.885L363.92 541.264H370.185L385.161 582.362H379.433L376.092 573.17ZM374.541 568.781L367.023 547.906L359.505 568.781H374.541Z" fill="white"/>
<path d="M420.729 549.855V582.355H415.299V577.551C414.263 579.211 412.823 580.509 410.974 581.435C409.124 582.362 407.088 582.829 404.858 582.829C402.315 582.829 400.025 582.303 397.996 581.258C395.968 580.212 394.364 578.641 393.193 576.543C392.023 574.445 391.433 571.895 391.433 568.892V549.855H396.803V568.181C396.803 571.383 397.616 573.844 399.249 575.564C400.883 577.284 403.105 578.144 405.932 578.144C408.759 578.144 411.123 577.254 412.793 575.475C414.464 573.696 415.299 571.109 415.299 567.706V549.855H420.729Z" fill="white"/>
<path d="M436.54 554.311V573.466C436.54 575.045 436.876 576.165 437.554 576.817C438.233 577.469 439.404 577.796 441.075 577.796H445.072V582.362H440.18C437.159 582.362 434.892 581.673 433.378 580.286C431.864 578.9 431.11 576.632 431.11 573.466V554.311H426.874V549.863H431.11V541.679H436.54V549.863H445.072V554.311H436.54Z" fill="white"/>
<path d="M457.572 580.82C455.088 579.434 453.134 577.469 451.725 574.919C450.315 572.369 449.607 569.411 449.607 566.053C449.607 562.695 450.33 559.797 451.784 557.246C453.239 554.696 455.215 552.739 457.721 551.375C460.227 550.011 463.031 549.329 466.134 549.329C469.236 549.329 472.041 550.011 474.547 551.375C477.053 552.739 479.029 554.689 480.483 557.217C481.938 559.745 482.661 562.695 482.661 566.053C482.661 569.411 481.915 572.369 480.424 574.919C478.932 577.469 476.911 579.434 474.368 580.82C471.824 582.206 468.998 582.896 465.895 582.896C462.793 582.896 460.056 582.206 457.572 580.82ZM471.384 576.787C473.092 575.876 474.48 574.512 475.531 572.695C476.583 570.879 477.112 568.663 477.112 566.053C477.112 563.444 476.598 561.227 475.561 559.411C474.524 557.595 473.174 556.238 471.504 555.349C469.833 554.459 468.021 554.014 466.074 554.014C464.128 554.014 462.263 554.459 460.615 555.349C458.967 556.238 457.639 557.595 456.647 559.411C455.655 561.227 455.156 563.444 455.156 566.053C455.156 568.663 455.64 570.938 456.617 572.755C457.594 574.571 458.892 575.928 460.525 576.817C462.159 577.707 463.949 578.151 465.895 578.151C467.842 578.151 469.676 577.699 471.384 576.787Z" fill="white"/>
<path d="M535.949 550.834C537.941 551.879 539.507 553.451 540.663 555.549C541.819 557.647 542.393 560.197 542.393 563.199V582.355H537.023V563.97C537.023 560.731 536.218 558.247 534.607 556.527C532.996 554.807 530.818 553.948 528.074 553.948C525.329 553.948 523.002 554.845 521.331 556.646C519.661 558.447 518.826 561.042 518.826 564.445V582.355H513.456V563.97C513.456 560.731 512.65 558.247 511.039 556.527C509.428 554.807 507.251 553.948 504.506 553.948C501.761 553.948 499.434 554.845 497.764 556.646C496.093 558.447 495.258 561.042 495.258 564.445V582.355H489.828V549.856H495.258V554.541C496.332 552.843 497.771 551.538 499.584 550.626C501.396 549.715 503.395 549.262 505.58 549.262C508.325 549.262 510.748 549.878 512.859 551.101C514.97 552.324 516.536 554.125 517.573 556.498C518.49 554.207 519.996 552.428 522.107 551.16C524.218 549.893 526.56 549.262 529.148 549.262C531.736 549.262 533.958 549.789 535.949 550.834Z" fill="white"/>
<path d="M551.283 557.246C552.633 554.733 554.498 552.791 556.862 551.405C559.226 550.019 561.866 549.329 564.768 549.329C567.669 549.329 570.115 549.944 572.226 551.168C574.336 552.391 575.903 553.94 576.939 555.793V549.863H582.428V582.362H576.939V576.313C575.865 578.211 574.262 579.782 572.136 581.028C570.011 582.273 567.535 582.896 564.708 582.896C561.881 582.896 559.181 582.184 556.832 580.761C554.483 579.338 552.633 577.343 551.283 574.771C549.933 572.199 549.255 569.278 549.255 565.994C549.255 562.71 549.933 559.759 551.283 557.246ZM575.448 559.641C574.456 557.825 573.113 556.431 571.42 555.46C569.727 554.489 567.87 554.007 565.841 554.007C563.813 554.007 561.963 554.481 560.293 555.43C558.622 556.379 557.287 557.765 556.295 559.582C555.303 561.398 554.803 563.533 554.803 565.986C554.803 568.44 555.303 570.642 556.295 572.48C557.287 574.319 558.622 575.72 560.293 576.691C561.963 577.662 563.813 578.144 565.841 578.144C567.87 578.144 569.727 577.662 571.42 576.691C573.113 575.72 574.456 574.319 575.448 572.48C576.439 570.642 576.939 568.5 576.939 566.046C576.939 563.592 576.439 561.457 575.448 559.641Z" fill="white"/>
<path d="M598.24 554.311V573.466C598.24 575.045 598.575 576.165 599.254 576.817C599.933 577.469 601.104 577.796 602.774 577.796H606.772V582.362H601.879C598.859 582.362 596.591 581.673 595.077 580.286C593.563 578.9 592.81 576.632 592.81 573.466V554.311H588.574V549.863H592.81V541.679H598.24V549.863H606.772V554.311H598.24Z" fill="white"/>
<path d="M613.514 543.51C612.798 542.798 612.44 541.931 612.44 540.9C612.44 539.87 612.798 539.003 613.514 538.291C614.23 537.579 615.102 537.224 616.139 537.224C617.176 537.224 617.981 537.579 618.675 538.291C619.369 539.003 619.719 539.87 619.719 540.9C619.719 541.931 619.369 542.798 618.675 543.51C617.981 544.222 617.131 544.577 616.139 544.577C615.147 544.577 614.23 544.222 613.514 543.51ZM618.764 549.855V582.355H613.335V549.855H618.764Z" fill="white"/>
<path d="M632.07 577.914H648.12V582.362H625.865V577.914L641.735 554.251H625.984V549.863H648V554.251L632.07 577.914Z" fill="white"/>
<path d="M684.821 568.129H658.688C658.889 571.331 659.993 573.83 661.999 575.631C664.005 577.432 666.444 578.329 669.308 578.329C671.657 578.329 673.611 577.788 675.185 576.698C676.759 575.609 677.863 574.156 678.497 572.34H684.344C683.471 575.46 681.718 578.003 679.093 579.96C676.468 581.917 673.209 582.896 669.308 582.896C666.206 582.896 663.431 582.206 660.985 580.82C658.539 579.434 656.622 577.469 655.227 574.919C653.833 572.369 653.139 569.411 653.139 566.053C653.139 562.695 653.818 559.745 655.168 557.217C656.517 554.689 658.419 552.739 660.866 551.375C663.312 550.011 666.124 549.329 669.308 549.329C672.493 549.329 675.155 550.004 677.542 551.346C679.929 552.687 681.771 554.541 683.061 556.891C684.351 559.241 685 561.902 685 564.867C685 565.898 684.94 566.98 684.821 568.129ZM678.019 558.432C677.102 556.95 675.864 555.823 674.29 555.052C672.717 554.281 670.979 553.896 669.07 553.896C666.325 553.896 663.991 554.763 662.059 556.505C660.127 558.247 659.023 560.656 658.747 563.74H679.392C679.392 561.687 678.937 559.915 678.019 558.432Z" fill="white"/>
<path d="M350.391 611.755C351.391 609.946 352.763 608.545 354.501 607.537C356.238 606.529 358.177 606.025 360.311 606.025C362.921 606.025 365.151 606.64 367.008 607.871C368.865 609.101 370.222 610.836 371.065 613.067H368.328C367.664 611.496 366.642 610.265 365.27 609.383C363.898 608.501 362.25 608.056 360.311 608.056C358.595 608.056 357.051 608.456 355.679 609.25C354.314 610.05 353.233 611.192 352.457 612.689C351.674 614.187 351.286 615.914 351.286 617.886C351.286 619.858 351.674 621.585 352.457 623.068C353.233 624.55 354.314 625.692 355.679 626.493C357.051 627.293 358.588 627.686 360.311 627.686C362.25 627.686 363.905 627.249 365.27 626.374C366.642 625.499 367.657 624.291 368.328 622.734H371.065C370.222 624.951 368.858 626.663 366.986 627.886C365.114 629.102 362.891 629.71 360.303 629.71C358.163 629.71 356.223 629.206 354.493 628.198C352.755 627.189 351.383 625.788 350.384 623.994C349.377 622.2 348.877 620.162 348.877 617.886C348.877 615.61 349.377 613.564 350.384 611.763L350.391 611.755Z" fill="white"/>
<path d="M379.075 628.627C377.703 627.864 376.629 626.782 375.831 625.373C375.04 623.965 374.645 622.326 374.645 620.443C374.645 618.56 375.048 616.922 375.846 615.514C376.651 614.105 377.74 613.023 379.12 612.259C380.5 611.496 382.051 611.11 383.766 611.11C385.482 611.11 387.04 611.496 388.428 612.259C389.815 613.023 390.911 614.105 391.702 615.514C392.492 616.922 392.888 618.56 392.888 620.443C392.888 622.326 392.485 623.942 391.687 625.358C390.881 626.774 389.778 627.864 388.375 628.627C386.973 629.391 385.415 629.777 383.699 629.777C381.984 629.777 380.44 629.398 379.068 628.627H379.075ZM387.04 626.937C388.062 626.396 388.897 625.573 389.531 624.476C390.165 623.379 390.486 622.037 390.486 620.443C390.486 618.85 390.173 617.508 389.554 616.411C388.935 615.313 388.107 614.498 387.085 613.957C386.063 613.416 384.945 613.141 383.744 613.141C382.543 613.141 381.424 613.408 380.403 613.957C379.381 614.498 378.561 615.321 377.949 616.411C377.337 617.508 377.032 618.857 377.032 620.443C377.032 622.03 377.337 623.386 377.949 624.476C378.561 625.573 379.373 626.389 380.388 626.937C381.402 627.486 382.513 627.753 383.714 627.753C384.915 627.753 386.034 627.486 387.055 626.937H387.04Z" fill="white"/>
<path d="M411.063 613.053C412.443 614.394 413.136 616.337 413.136 618.879V629.51H410.832V619.146C410.832 617.174 410.332 615.669 409.348 614.632C408.356 613.594 407.006 613.067 405.29 613.067C403.575 613.067 402.128 613.623 401.084 614.728C400.04 615.832 399.51 617.463 399.51 619.606V629.502H397.168V611.37H399.51V614.461C400.092 613.356 400.927 612.504 402.016 611.918C403.105 611.333 404.343 611.036 405.723 611.036C407.908 611.036 409.691 611.703 411.07 613.045L411.063 613.053Z" fill="white"/>
<path d="M421.355 613.334V624.587C421.355 625.692 421.564 626.463 421.989 626.878C422.414 627.301 423.16 627.508 424.227 627.508H426.367V629.502H423.861C422.213 629.502 420.99 629.124 420.184 628.353C419.379 627.582 418.984 626.337 418.984 624.58V613.327H416.44V611.37H418.984V606.818H421.355V611.37H426.367V613.327H421.355V613.334Z" fill="white"/>
<path d="M430.253 615.514C430.999 614.105 432.035 613.023 433.363 612.259C434.69 611.496 436.19 611.11 437.86 611.11C439.531 611.11 441.097 611.511 442.357 612.311C443.61 613.112 444.52 614.127 445.08 615.365V611.385H447.421V629.517H445.08V625.499C444.498 626.737 443.581 627.768 442.32 628.576C441.067 629.384 439.568 629.784 437.83 629.784C436.093 629.784 434.698 629.398 433.37 628.62C432.043 627.849 431.014 626.752 430.26 625.336C429.515 623.92 429.142 622.282 429.142 620.421C429.142 618.56 429.515 616.93 430.26 615.521L430.253 615.514ZM444.17 616.589C443.566 615.484 442.753 614.631 441.716 614.031C440.679 613.431 439.538 613.134 438.293 613.134C437.047 613.134 435.839 613.423 434.817 614.001C433.795 614.58 432.983 615.41 432.393 616.507C431.804 617.604 431.506 618.901 431.506 620.406C431.506 621.911 431.804 623.194 432.393 624.306C432.983 625.418 433.788 626.278 434.817 626.863C435.839 627.449 437.002 627.745 438.293 627.745C439.583 627.745 440.679 627.449 441.716 626.848C442.753 626.248 443.573 625.403 444.17 624.291C444.774 623.186 445.072 621.896 445.072 620.436C445.072 618.976 444.774 617.693 444.17 616.581V616.589Z" fill="white"/>
<path d="M457.855 612.304C459.116 611.503 460.6 611.103 462.315 611.103C464.031 611.103 465.478 611.488 466.79 612.252C468.103 613.015 469.132 614.098 469.885 615.506C470.631 616.915 471.004 618.546 471.004 620.406C471.004 622.267 470.631 623.905 469.885 625.321C469.14 626.737 468.103 627.834 466.775 628.605C465.448 629.384 463.964 629.769 462.315 629.769C460.578 629.769 459.079 629.376 457.826 628.59C456.565 627.805 455.648 626.782 455.066 625.514V629.502H452.761V604.928H455.066V615.388C455.67 614.127 456.595 613.097 457.855 612.296V612.304ZM467.745 616.507C467.156 615.41 466.35 614.58 465.321 614.001C464.299 613.423 463.136 613.134 461.845 613.134C460.555 613.134 459.459 613.431 458.422 614.031C457.386 614.631 456.565 615.477 455.968 616.589C455.372 617.701 455.066 618.983 455.066 620.443C455.066 621.904 455.364 623.186 455.968 624.298C456.573 625.403 457.386 626.255 458.422 626.856C459.459 627.456 460.6 627.753 461.845 627.753C463.091 627.753 464.292 627.456 465.321 626.871C466.35 626.285 467.156 625.432 467.745 624.313C468.334 623.194 468.632 621.896 468.632 620.414C468.632 618.931 468.334 617.612 467.745 616.514V616.507Z" fill="white"/>
<path d="M475.278 607.456C474.942 607.122 474.778 606.714 474.778 606.225C474.778 605.736 474.949 605.335 475.278 605.017C475.613 604.698 476.008 604.535 476.478 604.535C476.948 604.535 477.351 604.698 477.679 605.017C478.015 605.335 478.179 605.743 478.179 606.225C478.179 606.707 478.007 607.122 477.679 607.456C477.351 607.789 476.948 607.952 476.478 607.952C476.008 607.952 475.613 607.789 475.278 607.456ZM477.649 611.377V629.51H475.307V611.377H477.649Z" fill="white"/>
<path d="M485.301 604.935V629.51H482.959V604.935H485.301Z" fill="white"/>
<path d="M490.581 607.456C490.246 607.122 490.082 606.714 490.082 606.225C490.082 605.736 490.253 605.335 490.581 605.017C490.917 604.698 491.312 604.535 491.782 604.535C492.252 604.535 492.655 604.698 492.983 605.017C493.319 605.335 493.483 605.743 493.483 606.225C493.483 606.707 493.311 607.122 492.983 607.456C492.655 607.789 492.252 607.952 491.782 607.952C491.312 607.952 490.917 607.789 490.581 607.456ZM492.953 611.377V629.51H490.611V611.377H492.953Z" fill="white"/>
<path d="M498.331 615.514C499.084 614.105 500.128 613.023 501.456 612.259C502.783 611.496 504.275 611.11 505.945 611.11C507.616 611.11 508.996 611.496 510.293 612.274C511.584 613.045 512.531 614.053 513.135 615.299V604.935H515.477V629.51H513.135V625.455C512.576 626.715 511.666 627.753 510.398 628.561C509.13 629.369 507.638 629.769 505.923 629.769C504.208 629.769 502.753 629.384 501.426 628.605C500.098 627.834 499.069 626.737 498.316 625.321C497.57 623.905 497.197 622.267 497.197 620.406C497.197 618.546 497.577 616.915 498.331 615.506V615.514ZM512.233 616.589C511.628 615.484 510.816 614.632 509.779 614.031C508.742 613.431 507.601 613.134 506.356 613.134C505.11 613.134 503.902 613.423 502.88 614.001C501.858 614.58 501.045 615.41 500.456 616.507C499.867 617.604 499.569 618.901 499.569 620.406C499.569 621.911 499.867 623.194 500.456 624.306C501.045 625.418 501.851 626.278 502.88 626.863C503.902 627.449 505.065 627.745 506.356 627.745C507.646 627.745 508.742 627.449 509.779 626.848C510.816 626.248 511.636 625.403 512.233 624.291C512.837 623.186 513.135 621.896 513.135 620.436C513.135 618.976 512.837 617.693 512.233 616.581V616.589Z" fill="white"/>
<path d="M520.869 615.514C521.615 614.105 522.652 613.023 523.979 612.259C525.307 611.496 526.806 611.11 528.476 611.11C530.147 611.11 531.713 611.511 532.974 612.311C534.227 613.112 535.136 614.127 535.696 615.365V611.385H538.038V629.517H535.696V625.499C535.114 626.737 534.197 627.768 532.936 628.576C531.683 629.384 530.184 629.784 528.447 629.784C526.709 629.784 525.314 629.398 523.987 628.62C522.659 627.849 521.63 626.752 520.877 625.336C520.131 623.92 519.758 622.282 519.758 620.421C519.758 618.56 520.131 616.93 520.877 615.521L520.869 615.514ZM534.786 616.589C534.182 615.484 533.369 614.631 532.332 614.031C531.296 613.431 530.154 613.134 528.909 613.134C527.663 613.134 526.455 613.423 525.433 614.001C524.412 614.58 523.599 615.41 523.01 616.507C522.42 617.604 522.122 618.901 522.122 620.406C522.122 621.911 522.42 623.194 523.01 624.306C523.599 625.418 524.404 626.278 525.433 626.863C526.455 627.449 527.619 627.745 528.909 627.745C530.199 627.745 531.296 627.449 532.332 626.848C533.369 626.248 534.189 625.403 534.786 624.291C535.39 623.186 535.688 621.896 535.688 620.436C535.688 618.976 535.39 617.693 534.786 616.581V616.589Z" fill="white"/>
<path d="M543.437 615.514C544.191 614.105 545.235 613.023 546.562 612.259C547.89 611.496 549.381 611.11 551.052 611.11C552.723 611.11 554.102 611.496 555.4 612.274C556.69 613.045 557.638 614.053 558.242 615.299V604.935H560.584V629.51H558.242V625.455C557.682 626.715 556.772 627.753 555.505 628.561C554.237 629.369 552.745 629.769 551.03 629.769C549.314 629.769 547.86 629.384 546.532 628.605C545.205 627.834 544.176 626.737 543.422 625.321C542.677 623.905 542.304 622.267 542.304 620.406C542.304 618.546 542.684 616.915 543.437 615.506V615.514ZM557.339 616.589C556.735 615.484 555.922 614.632 554.886 614.031C553.849 613.431 552.708 613.134 551.462 613.134C550.217 613.134 549.009 613.423 547.987 614.001C546.965 614.58 546.152 615.41 545.563 616.507C544.974 617.604 544.675 618.901 544.675 620.406C544.675 621.911 544.974 623.194 545.563 624.306C546.152 625.418 546.958 626.278 547.987 626.863C549.009 627.449 550.172 627.745 551.462 627.745C552.753 627.745 553.849 627.449 554.886 626.848C555.922 626.248 556.743 625.403 557.339 624.291C557.943 623.186 558.242 621.896 558.242 620.436C558.242 618.976 557.943 617.693 557.339 616.581V616.589Z" fill="white"/>
<path d="M582.361 621.34H567.221C567.288 622.712 567.624 623.883 568.228 624.862C568.832 625.833 569.623 626.574 570.6 627.071C571.584 627.567 572.651 627.819 573.807 627.819C575.321 627.819 576.596 627.456 577.633 626.722C578.67 625.988 579.356 625.002 579.691 623.764H582.16C581.712 625.536 580.765 626.982 579.303 628.101C577.849 629.221 576.014 629.777 573.807 629.777C572.091 629.777 570.555 629.398 569.198 628.627C567.84 627.864 566.774 626.782 566.006 625.373C565.237 623.965 564.85 622.326 564.85 620.443C564.85 618.56 565.23 616.915 565.983 615.491C566.737 614.075 567.796 612.993 569.153 612.237C570.51 611.488 572.062 611.11 573.799 611.11C575.537 611.11 577.059 611.488 578.356 612.237C579.661 612.993 580.661 614.001 581.362 615.276C582.063 616.551 582.414 617.96 582.414 619.509C582.414 620.31 582.391 620.918 582.346 621.333L582.361 621.34ZM579.236 615.988C578.67 615.039 577.894 614.313 576.917 613.831C575.932 613.342 574.866 613.104 573.71 613.104C571.972 613.104 570.488 613.66 569.265 614.765C568.042 615.869 567.356 617.434 567.229 619.45H580.057C580.079 618.101 579.803 616.944 579.236 615.995V615.988Z" fill="white"/>
</g>
<rect x="1710" y="113" width="693" height="257" fill="#F6F6F6"/>
<rect x="1710" y="444" width="693" height="257" fill="#6C2EF3"/>
<rect x="2494" y="113" width="693" height="257" fill="#190F59"/>
<defs>
<clipPath id="clip0_209_317">
<rect width="488" height="115" fill="white" transform="translate(197 195)"/>
</clipPath>
<clipPath id="clip1_209_317">
<rect width="485" height="115" fill="white" transform="translate(982 195)"/>
</clipPath>
<clipPath id="clip2_209_317">
<rect width="488" height="115" fill="white" transform="translate(197 526)"/>
</clipPath>
</defs>
</svg>
